<?xml version="1.0" encoding="UTF-8"?>
<!DOCTYPE svg PUBLIC "-//W3C//DTD SVG 1.1//EN" "http://www.w3.org/Graphics/SVG/1.1/DTD/svg11.dtd">
<svg version="1.2" width="495mm" height="350mm" viewBox="0 0 49500 35000" preserveAspectRatio="xMidYMid" fill-rule="evenodd" stroke-width="28.222" stroke-linejoin="round" xmlns="http://www.w3.org/2000/svg" xmlns:ooo="http://xml.openoffice.org/svg/export" xmlns:xlink="http://www.w3.org/1999/xlink" xmlns:presentation="http://sun.com/xmlns/staroffice/presentation" xmlns:smil="http://www.w3.org/2001/SMIL20/" xmlns:anim="urn:oasis:names:tc:opendocument:xmlns:animation:1.0" xml:space="preserve">
 <defs class="ClipPathGroup">
  <clipPath id="presentation_clip_path" clipPathUnits="userSpaceOnUse">
   <rect x="0" y="0" width="49500" height="35000"/>
  </clipPath>
  <clipPath id="presentation_clip_path_shrink" clipPathUnits="userSpaceOnUse">
   <rect x="49" y="35" width="49401" height="34930"/>
  </clipPath>
 </defs>
 <defs class="TextShapeIndex">
  <g ooo:slide="id1" ooo:id-list="id3 id4 id5 id6 id7 id8 id9 id10 id11 id12 id13 id14 id15 id16 id17 id18 id19 id20 id21 id22 id23 id24 id25 id26 id27 id28 id29 id30 id31 id32 id33 id34 id35 id36 id37 id38 id39 id40 id41 id42 id43 id44 id45 id46 id47 id48 id49 id50 id51 id52 id53 id54 id55 id56 id57 id58 id59 id60 id61 id62 id63 id64 id65 id66 id67 id68 id69 id70 id71 id72 id73 id74 id75 id76 id77 id78 id79 id80 id81 id82 id83 id84 id85 id86 id87 id88 id89 id90 id91 id92 id93 id94 id95 id96 id97 id98 id99 id100 id101 id102 id103 id104 id105 id106 id107 id108 id109 id110 id111 id112 id113 id114 id115 id116 id117 id118 id119 id120 id121 id122 id123 id124 id125 id126 id127 id128 id129 id130 id131 id132 id133 id134 id135 id136 id137 id138 id139 id140 id141 id142 id143 id144 id145 id146"/>
 </defs>
 <defs class="EmbeddedBulletChars">
  <g id="bullet-char-template-57356" transform="scale(0.00048828125,-0.00048828125)">
   <path d="M 580,1141 L 1163,571 580,0 -4,571 580,1141 Z"/>
  </g>
  <g id="bullet-char-template-57354" transform="scale(0.00048828125,-0.00048828125)">
   <path d="M 8,1128 L 1137,1128 1137,0 8,0 8,1128 Z"/>
  </g>
  <g id="bullet-char-template-10146" transform="scale(0.00048828125,-0.00048828125)">
   <path d="M 174,0 L 602,739 174,1481 1456,739 174,0 Z M 1358,739 L 309,1346 659,739 1358,739 Z"/>
  </g>
  <g id="bullet-char-template-10132" transform="scale(0.00048828125,-0.00048828125)">
   <path d="M 2015,739 L 1276,0 717,0 1260,543 174,543 174,936 1260,936 717,1481 1274,1481 2015,739 Z"/>
  </g>
  <g id="bullet-char-template-10007" transform="scale(0.00048828125,-0.00048828125)">
   <path d="M 0,-2 C -7,14 -16,27 -25,37 L 356,567 C 262,823 215,952 215,954 215,979 228,992 255,992 264,992 276,990 289,987 310,991 331,999 354,1012 L 381,999 492,748 772,1049 836,1024 860,1049 C 881,1039 901,1025 922,1006 886,937 835,863 770,784 769,783 710,716 594,584 L 774,223 C 774,196 753,168 711,139 L 727,119 C 717,90 699,76 672,76 641,76 570,178 457,381 L 164,-76 C 142,-110 111,-127 72,-127 30,-127 9,-110 8,-76 1,-67 -2,-52 -2,-32 -2,-23 -1,-13 0,-2 Z"/>
  </g>
  <g id="bullet-char-template-10004" transform="scale(0.00048828125,-0.00048828125)">
   <path d="M 285,-33 C 182,-33 111,30 74,156 52,228 41,333 41,471 41,549 55,616 82,672 116,743 169,778 240,778 293,778 328,747 346,684 L 369,508 C 377,444 397,411 428,410 L 1163,1116 C 1174,1127 1196,1133 1229,1133 1271,1133 1292,1118 1292,1087 L 1292,965 C 1292,929 1282,901 1262,881 L 442,47 C 390,-6 338,-33 285,-33 Z"/>
  </g>
  <g id="bullet-char-template-9679" transform="scale(0.00048828125,-0.00048828125)">
   <path d="M 813,0 C 632,0 489,54 383,161 276,268 223,411 223,592 223,773 276,916 383,1023 489,1130 632,1184 813,1184 992,1184 1136,1130 1245,1023 1353,916 1407,772 1407,592 1407,412 1353,268 1245,161 1136,54 992,0 813,0 Z"/>
  </g>
  <g id="bullet-char-template-8226" transform="scale(0.00048828125,-0.00048828125)">
   <path d="M 346,457 C 273,457 209,483 155,535 101,586 74,649 74,723 74,796 101,859 155,911 209,963 273,989 346,989 419,989 480,963 531,910 582,859 608,796 608,723 608,648 583,586 532,535 482,483 420,457 346,457 Z"/>
  </g>
  <g id="bullet-char-template-8211" transform="scale(0.00048828125,-0.00048828125)">
   <path d="M -4,459 L 1135,459 1135,606 -4,606 -4,459 Z"/>
  </g>
  <g id="bullet-char-template-61548" transform="scale(0.00048828125,-0.00048828125)">
   <path d="M 173,740 C 173,903 231,1043 346,1159 462,1274 601,1332 765,1332 928,1332 1067,1274 1183,1159 1299,1043 1357,903 1357,740 1357,577 1299,437 1183,322 1067,206 928,148 765,148 601,148 462,206 346,322 231,437 173,577 173,740 Z"/>
  </g>
 </defs>
 <defs class="TextEmbeddedBitmaps"/>
 <g>
  <g id="id2" class="Master_Slide">
   <g id="bg-id2" class="Background"/>
   <g id="bo-id2" class="BackgroundObjects"/>
  </g>
 </g>
 <g class="SlideGroup">
  <g>
   <g id="container-id1">
    <g id="id1" class="Slide" clip-path="url(#presentation_clip_path)">
     <g class="Page">
      <g class="com.sun.star.drawing.PolyPolygonShape">
       <g id="id3">
        <rect class="BoundingBox" stroke="none" fill="none" x="1599" y="20151" width="1987" height="2065"/>
       </g>
      </g>
      <g class="com.sun.star.drawing.PolyPolygonShape">
       <g id="id4">
        <rect class="BoundingBox" stroke="none" fill="none" x="1599" y="20151" width="1986" height="2062"/>
       </g>
      </g>
      <g class="com.sun.star.drawing.ClosedBezierShape">
       <g id="id5">
        <rect class="BoundingBox" stroke="none" fill="none" x="1600" y="20152" width="1983" height="2060"/>
        <path fill="rgb(255,255,255)" stroke="none" d="M 1600,21182 C 1600,20581 2080,20152 2729,20152 3088,20152 3386,20277 3582,20505 L 3272,20778 C 3136,20624 2958,20544 2753,20544 2362,20544 2086,20807 2086,21182 2086,21556 2362,21819 2753,21819 2958,21819 3136,21739 3272,21583 L 3582,21856 C 3386,22085 3088,22211 2724,22211 2080,22211 1600,21782 1600,21182 Z"/>
       </g>
      </g>
      <g class="com.sun.star.drawing.PolyPolygonShape">
       <g id="id6">
        <rect class="BoundingBox" stroke="none" fill="none" x="3781" y="20151" width="2278" height="2065"/>
       </g>
      </g>
      <g class="com.sun.star.drawing.PolyPolygonShape">
       <g id="id7">
        <rect class="BoundingBox" stroke="none" fill="none" x="3781" y="20151" width="2276" height="2062"/>
       </g>
      </g>
      <g class="com.sun.star.drawing.ClosedBezierShape">
       <g id="id8">
        <rect class="BoundingBox" stroke="none" fill="none" x="3783" y="20152" width="2272" height="2060"/>
        <path fill="rgb(255,255,255)" stroke="none" d="M 5569,21182 C 5569,20803 5290,20544 4920,20544 4548,20544 4269,20803 4269,21182 4269,21560 4548,21819 4920,21819 5290,21819 5569,21560 5569,21182 Z M 3783,21182 C 3783,20590 4263,20152 4920,20152 5574,20152 6054,20588 6054,21182 6054,21775 5574,22211 4920,22211 4263,22211 3783,21773 3783,21182 Z"/>
       </g>
      </g>
      <g class="com.sun.star.drawing.PolyPolygonShape">
       <g id="id9">
        <rect class="BoundingBox" stroke="none" fill="none" x="6467" y="20186" width="1913" height="1995"/>
       </g>
      </g>
      <g class="com.sun.star.drawing.PolyPolygonShape">
       <g id="id10">
        <rect class="BoundingBox" stroke="none" fill="none" x="6470" y="20186" width="1909" height="1992"/>
       </g>
      </g>
      <g class="com.sun.star.drawing.PolyPolygonShape">
       <g id="id11">
        <rect class="BoundingBox" stroke="none" fill="none" x="6470" y="20186" width="1908" height="1991"/>
        <path fill="rgb(255,255,255)" stroke="none" d="M 8377,20186 L 8377,22176 7982,22176 6945,20968 6945,22176 6470,22176 6470,20186 6866,20186 7902,21395 7902,20186 8377,20186 Z"/>
       </g>
      </g>
      <g class="com.sun.star.drawing.PolyPolygonShape">
       <g id="id12">
        <rect class="BoundingBox" stroke="none" fill="none" x="8684" y="20186" width="1819" height="1995"/>
       </g>
      </g>
      <g class="com.sun.star.drawing.PolyPolygonShape">
       <g id="id13">
        <rect class="BoundingBox" stroke="none" fill="none" x="8686" y="20186" width="1814" height="1992"/>
       </g>
      </g>
      <g class="com.sun.star.drawing.PolyPolygonShape">
       <g id="id14">
        <rect class="BoundingBox" stroke="none" fill="none" x="8687" y="20186" width="1812" height="1991"/>
        <path fill="rgb(255,255,255)" stroke="none" d="M 9351,20560 L 8687,20560 8687,20186 10497,20186 10497,20560 9834,20560 9834,22176 9351,22176 9351,20560 Z"/>
       </g>
      </g>
      <g class="com.sun.star.drawing.PolyPolygonShape">
       <g id="id15">
        <rect class="BoundingBox" stroke="none" fill="none" x="10810" y="20186" width="1849" height="1995"/>
       </g>
      </g>
      <g class="com.sun.star.drawing.PolyPolygonShape">
       <g id="id16">
        <rect class="BoundingBox" stroke="none" fill="none" x="10810" y="20186" width="1843" height="1992"/>
       </g>
      </g>
      <g class="com.sun.star.drawing.ClosedBezierShape">
       <g id="id17">
        <rect class="BoundingBox" stroke="none" fill="none" x="10809" y="20186" width="1843" height="1991"/>
        <path fill="rgb(255,255,255)" stroke="none" d="M 11682,20560 L 11292,20560 11292,21257 11682,21257 C 11978,21257 12127,21124 12127,20908 12127,20689 11978,20560 11682,20560 Z M 12134,22176 L 11736,21623 11709,21623 11292,21623 11292,22176 10810,22176 10810,20186 11709,20186 C 12266,20186 12612,20463 12612,20908 12612,21209 12455,21428 12186,21537 L 12651,22176 12134,22176 Z"/>
       </g>
      </g>
      <g class="com.sun.star.drawing.PolyPolygonShape">
       <g id="id18">
        <rect class="BoundingBox" stroke="none" fill="none" x="12914" y="20151" width="2278" height="2065"/>
       </g>
      </g>
      <g class="com.sun.star.drawing.PolyPolygonShape">
       <g id="id19">
        <rect class="BoundingBox" stroke="none" fill="none" x="12914" y="20151" width="2276" height="2062"/>
       </g>
      </g>
      <g class="com.sun.star.drawing.ClosedBezierShape">
       <g id="id20">
        <rect class="BoundingBox" stroke="none" fill="none" x="12915" y="20152" width="2272" height="2060"/>
        <path fill="rgb(255,255,255)" stroke="none" d="M 14701,21182 C 14701,20803 14422,20544 14052,20544 13680,20544 13401,20803 13401,21182 13401,21560 13680,21819 14052,21819 14422,21819 14701,21560 14701,21182 Z M 12915,21182 C 12915,20590 13395,20152 14052,20152 14706,20152 15186,20588 15186,21182 15186,21775 14706,22211 14052,22211 13395,22211 12915,21773 12915,21182 Z"/>
       </g>
      </g>
      <g class="com.sun.star.drawing.PolyPolygonShape">
       <g id="id21">
        <rect class="BoundingBox" stroke="none" fill="none" x="15604" y="20186" width="1531" height="1995"/>
       </g>
      </g>
      <g class="com.sun.star.drawing.PolyPolygonShape">
       <g id="id22">
        <rect class="BoundingBox" stroke="none" fill="none" x="15604" y="20186" width="1527" height="1992"/>
       </g>
      </g>
      <g class="com.sun.star.drawing.PolyPolygonShape">
       <g id="id23">
        <rect class="BoundingBox" stroke="none" fill="none" x="15604" y="20186" width="1526" height="1991"/>
        <path fill="rgb(255,255,255)" stroke="none" d="M 15604,20186 L 16086,20186 16086,21802 17129,21802 17129,22176 15604,22176 15604,20186 Z"/>
       </g>
      </g>
      <g class="com.sun.star.drawing.PolyPolygonShape">
       <g id="id24">
        <rect class="BoundingBox" stroke="none" fill="none" x="17195" y="20186" width="2336" height="1995"/>
       </g>
      </g>
      <g class="com.sun.star.drawing.PolyPolygonShape">
       <g id="id25">
        <rect class="BoundingBox" stroke="none" fill="none" x="17195" y="20186" width="2333" height="1992"/>
       </g>
      </g>
      <g class="com.sun.star.drawing.PolyPolygonShape">
       <g id="id26">
        <rect class="BoundingBox" stroke="none" fill="none" x="17194" y="20186" width="2332" height="1991"/>
        <path fill="rgb(255,255,255)" stroke="none" d="M 18686,21400 L 18354,20638 18027,21400 18686,21400 Z M 18838,21750 L 17873,21750 17688,22176 17195,22176 18120,20186 18597,20186 19525,22176 19021,22176 18838,21750 Z"/>
       </g>
      </g>
      <g class="com.sun.star.drawing.PolyPolygonShape">
       <g id="id27">
        <rect class="BoundingBox" stroke="none" fill="none" x="19795" y="20186" width="2094" height="1995"/>
       </g>
      </g>
      <g class="com.sun.star.drawing.PolyPolygonShape">
       <g id="id28">
        <rect class="BoundingBox" stroke="none" fill="none" x="19795" y="20186" width="2092" height="1992"/>
       </g>
      </g>
      <g class="com.sun.star.drawing.ClosedBezierShape">
       <g id="id29">
        <rect class="BoundingBox" stroke="none" fill="none" x="19796" y="20186" width="2089" height="1991"/>
        <path fill="rgb(255,255,255)" stroke="none" d="M 20714,21799 C 21129,21799 21399,21564 21399,21182 21399,20801 21129,20565 20714,20565 L 20276,20565 20276,21799 20714,21799 Z M 19796,20186 L 20739,20186 C 21419,20186 21884,20578 21884,21182 21884,21784 21419,22176 20739,22176 L 19796,22176 19796,20186 Z"/>
       </g>
      </g>
      <g class="com.sun.star.drawing.PolyPolygonShape">
       <g id="id30">
        <rect class="BoundingBox" stroke="none" fill="none" x="22168" y="20151" width="2277" height="2065"/>
       </g>
      </g>
      <g class="com.sun.star.drawing.PolyPolygonShape">
       <g id="id31">
        <rect class="BoundingBox" stroke="none" fill="none" x="22168" y="20151" width="2274" height="2062"/>
       </g>
      </g>
      <g class="com.sun.star.drawing.ClosedBezierShape">
       <g id="id32">
        <rect class="BoundingBox" stroke="none" fill="none" x="22168" y="20152" width="2274" height="2060"/>
        <path fill="rgb(255,255,255)" stroke="none" d="M 23954,21182 C 23954,20803 23676,20544 23306,20544 22933,20544 22654,20803 22654,21182 22654,21560 22933,21819 23306,21819 23676,21819 23954,21560 23954,21182 Z M 22168,21182 C 22168,20590 22648,20152 23306,20152 23959,20152 24440,20588 24440,21182 24440,21775 23959,22211 23306,22211 22648,22211 22168,21773 22168,21182 Z"/>
       </g>
      </g>
      <g class="com.sun.star.drawing.PolyPolygonShape">
       <g id="id33">
        <rect class="BoundingBox" stroke="none" fill="none" x="24855" y="20186" width="1848" height="1995"/>
       </g>
      </g>
      <g class="com.sun.star.drawing.PolyPolygonShape">
       <g id="id34">
        <rect class="BoundingBox" stroke="none" fill="none" x="24855" y="20186" width="1843" height="1992"/>
       </g>
      </g>
      <g class="com.sun.star.drawing.ClosedBezierShape">
       <g id="id35">
        <rect class="BoundingBox" stroke="none" fill="none" x="24856" y="20186" width="1841" height="1991"/>
        <path fill="rgb(255,255,255)" stroke="none" d="M 25726,20560 L 25336,20560 25336,21257 25726,21257 C 26023,21257 26172,21124 26172,20908 26172,20689 26023,20560 25726,20560 Z M 26179,22176 L 25780,21623 25754,21623 25336,21623 25336,22176 24856,22176 24856,20186 25754,20186 C 26311,20186 26657,20463 26657,20908 26657,21209 26499,21428 26232,21537 L 26696,22176 26179,22176 Z"/>
       </g>
      </g>
      <g class="com.sun.star.drawing.PolyPolygonShape">
       <g id="id36">
        <rect class="BoundingBox" stroke="none" fill="none" x="27090" y="20186" width="492" height="1995"/>
       </g>
      </g>
      <g class="com.sun.star.drawing.PolyPolygonShape">
       <g id="id37">
        <rect class="BoundingBox" stroke="none" fill="none" x="27090" y="20186" width="488" height="1992"/>
       </g>
      </g>
      <g class="com.sun.star.drawing.PolyPolygonShape">
       <g id="id38">
        <rect class="BoundingBox" stroke="none" fill="none" x="27091" y="20186" width="487" height="1991"/>
        <path fill="rgb(255,255,255)" stroke="none" d="M 27091,20186 L 27576,20186 27576,22176 27091,22176 27091,20186 Z"/>
       </g>
      </g>
      <g class="com.sun.star.drawing.PolyPolygonShape">
       <g id="id39">
        <rect class="BoundingBox" stroke="none" fill="none" x="27849" y="20186" width="2336" height="1995"/>
       </g>
      </g>
      <g class="com.sun.star.drawing.PolyPolygonShape">
       <g id="id40">
        <rect class="BoundingBox" stroke="none" fill="none" x="27849" y="20186" width="2332" height="1992"/>
       </g>
      </g>
      <g class="com.sun.star.drawing.PolyPolygonShape">
       <g id="id41">
        <rect class="BoundingBox" stroke="none" fill="none" x="27850" y="20186" width="2329" height="1991"/>
        <path fill="rgb(255,255,255)" stroke="none" d="M 29339,21400 L 29008,20638 28680,21400 29339,21400 Z M 29492,21750 L 28527,21750 28343,22176 27850,22176 28774,20186 29252,20186 30178,22176 29675,22176 29492,21750 Z"/>
       </g>
      </g>
      <g class="com.sun.star.drawing.PolyPolygonShape">
       <g id="id42">
        <rect class="BoundingBox" stroke="none" fill="none" x="30289" y="21197" width="851" height="366"/>
       </g>
      </g>
      <g class="com.sun.star.drawing.PolyPolygonShape">
       <g id="id43">
        <rect class="BoundingBox" stroke="none" fill="none" x="30289" y="21197" width="847" height="362"/>
       </g>
      </g>
      <g class="com.sun.star.drawing.PolyPolygonShape">
       <g id="id44">
        <rect class="BoundingBox" stroke="none" fill="none" x="30289" y="21197" width="845" height="361"/>
        <path fill="rgb(255,255,255)" stroke="none" d="M 30289,21197 L 31133,21197 31133,21557 30289,21557 30289,21197 Z"/>
       </g>
      </g>
      <g class="com.sun.star.drawing.PolyPolygonShape">
       <g id="id45">
        <rect class="BoundingBox" stroke="none" fill="none" x="31463" y="20151" width="2019" height="2065"/>
       </g>
      </g>
      <g class="com.sun.star.drawing.PolyPolygonShape">
       <g id="id46">
        <rect class="BoundingBox" stroke="none" fill="none" x="31464" y="20151" width="2016" height="2062"/>
       </g>
      </g>
      <g class="com.sun.star.drawing.ClosedBezierShape">
       <g id="id47">
        <rect class="BoundingBox" stroke="none" fill="none" x="31464" y="20152" width="2016" height="2060"/>
        <path fill="rgb(255,255,255)" stroke="none" d="M 33002,21149 L 33440,21149 33440,21958 C 33211,22122 32897,22211 32600,22211 31946,22211 31464,21782 31464,21182 31464,20581 31946,20152 32609,20152 32973,20152 33276,20272 33479,20496 L 33169,20768 C 33017,20614 32843,20544 32633,20544 32227,20544 31952,20803 31952,21182 31952,21555 32227,21819 32626,21819 32757,21819 32879,21796 33002,21733 L 33002,21149 Z"/>
       </g>
      </g>
      <g class="com.sun.star.drawing.PolyPolygonShape">
       <g id="id48">
        <rect class="BoundingBox" stroke="none" fill="none" x="33876" y="20186" width="1614" height="1995"/>
       </g>
      </g>
      <g class="com.sun.star.drawing.PolyPolygonShape">
       <g id="id49">
        <rect class="BoundingBox" stroke="none" fill="none" x="33876" y="20186" width="1613" height="1992"/>
       </g>
      </g>
      <g class="com.sun.star.drawing.PolyPolygonShape">
       <g id="id50">
        <rect class="BoundingBox" stroke="none" fill="none" x="33876" y="20186" width="1612" height="1991"/>
        <path fill="rgb(255,255,255)" stroke="none" d="M 35487,21807 L 35487,22176 33876,22176 33876,20186 35446,20186 35446,20555 34354,20555 34354,20988 35321,20988 35321,21347 34354,21347 34354,21807 35487,21807 Z"/>
       </g>
      </g>
      <g class="com.sun.star.drawing.PolyPolygonShape">
       <g id="id51">
        <rect class="BoundingBox" stroke="none" fill="none" x="35861" y="20186" width="1848" height="1995"/>
       </g>
      </g>
      <g class="com.sun.star.drawing.PolyPolygonShape">
       <g id="id52">
        <rect class="BoundingBox" stroke="none" fill="none" x="35861" y="20186" width="1844" height="1992"/>
       </g>
      </g>
      <g class="com.sun.star.drawing.ClosedBezierShape">
       <g id="id53">
        <rect class="BoundingBox" stroke="none" fill="none" x="35861" y="20186" width="1842" height="1991"/>
        <path fill="rgb(255,255,255)" stroke="none" d="M 36733,20560 L 36343,20560 36343,21257 36733,21257 C 37029,21257 37178,21124 37178,20908 37178,20689 37029,20560 36733,20560 Z M 37185,22176 L 36787,21623 36760,21623 36343,21623 36343,22176 35861,22176 35861,20186 36760,20186 C 37317,20186 37663,20463 37663,20908 37663,21209 37506,21428 37237,21537 L 37702,22176 37185,22176 Z"/>
       </g>
      </g>
      <g class="com.sun.star.drawing.PolyPolygonShape">
       <g id="id54">
        <rect class="BoundingBox" stroke="none" fill="none" x="37764" y="20186" width="2336" height="1995"/>
       </g>
      </g>
      <g class="com.sun.star.drawing.PolyPolygonShape">
       <g id="id55">
        <rect class="BoundingBox" stroke="none" fill="none" x="37764" y="20186" width="2333" height="1992"/>
       </g>
      </g>
      <g class="com.sun.star.drawing.PolyPolygonShape">
       <g id="id56">
        <rect class="BoundingBox" stroke="none" fill="none" x="37765" y="20186" width="2329" height="1991"/>
        <path fill="rgb(255,255,255)" stroke="none" d="M 39254,21400 L 38924,20638 38595,21400 39254,21400 Z M 39407,21750 L 38442,21750 38258,22176 37765,22176 38689,20186 39167,20186 40093,22176 39591,22176 39407,21750 Z"/>
       </g>
      </g>
      <g class="com.sun.star.drawing.PolyPolygonShape">
       <g id="id57">
        <rect class="BoundingBox" stroke="none" fill="none" x="40305" y="20186" width="1530" height="1995"/>
       </g>
      </g>
      <g class="com.sun.star.drawing.PolyPolygonShape">
       <g id="id58">
        <rect class="BoundingBox" stroke="none" fill="none" x="40305" y="20186" width="1527" height="1992"/>
       </g>
      </g>
      <g class="com.sun.star.drawing.PolyPolygonShape">
       <g id="id59">
        <rect class="BoundingBox" stroke="none" fill="none" x="40305" y="20186" width="1524" height="1991"/>
        <path fill="rgb(255,255,255)" stroke="none" d="M 40305,20186 L 40787,20186 40787,21802 41828,21802 41828,22176 40305,22176 40305,20186 Z"/>
       </g>
      </g>
      <g class="com.sun.star.drawing.PolyPolygonShape">
       <g id="id60">
        <rect class="BoundingBox" stroke="none" fill="none" x="42991" y="20186" width="2095" height="1995"/>
       </g>
      </g>
      <g class="com.sun.star.drawing.PolyPolygonShape">
       <g id="id61">
        <rect class="BoundingBox" stroke="none" fill="none" x="42991" y="20186" width="2093" height="1992"/>
       </g>
      </g>
      <g class="com.sun.star.drawing.ClosedBezierShape">
       <g id="id62">
        <rect class="BoundingBox" stroke="none" fill="none" x="42991" y="20186" width="2091" height="1991"/>
        <path fill="rgb(255,255,255)" stroke="none" d="M 43911,21799 C 44326,21799 44596,21564 44596,21182 44596,20801 44326,20565 43911,20565 L 43473,20565 43473,21799 43911,21799 Z M 42991,20186 L 43936,20186 C 44616,20186 45081,20578 45081,21182 45081,21784 44616,22176 43936,22176 L 42991,22176 42991,20186 Z"/>
       </g>
      </g>
      <g class="com.sun.star.drawing.PolyPolygonShape">
       <g id="id63">
        <rect class="BoundingBox" stroke="none" fill="none" x="45363" y="20151" width="2278" height="2065"/>
       </g>
      </g>
      <g class="com.sun.star.drawing.PolyPolygonShape">
       <g id="id64">
        <rect class="BoundingBox" stroke="none" fill="none" x="45364" y="20151" width="2276" height="2062"/>
       </g>
      </g>
      <g class="com.sun.star.drawing.ClosedBezierShape">
       <g id="id65">
        <rect class="BoundingBox" stroke="none" fill="none" x="45365" y="20152" width="2272" height="2060"/>
        <path fill="rgb(255,255,255)" stroke="none" d="M 47151,21182 C 47151,20803 46872,20544 46502,20544 46129,20544 45851,20803 45851,21182 45851,21560 46129,21819 46502,21819 46872,21819 47151,21560 47151,21182 Z M 45365,21182 C 45365,20590 45845,20152 46502,20152 47156,20152 47636,20588 47636,21182 47636,21775 47156,22211 46502,22211 45845,22211 45365,21773 45365,21182 Z"/>
       </g>
      </g>
      <g class="com.sun.star.drawing.PolyPolygonShape">
       <g id="id66">
        <rect class="BoundingBox" stroke="none" fill="none" x="1633" y="23589" width="1614" height="1996"/>
       </g>
      </g>
      <g class="com.sun.star.drawing.PolyPolygonShape">
       <g id="id67">
        <rect class="BoundingBox" stroke="none" fill="none" x="1633" y="23588" width="1613" height="1994"/>
       </g>
      </g>
      <g class="com.sun.star.drawing.PolyPolygonShape">
       <g id="id68">
        <rect class="BoundingBox" stroke="none" fill="none" x="1633" y="23589" width="1612" height="1992"/>
        <path fill="rgb(255,255,255)" stroke="none" d="M 3244,25210 L 3244,25579 1633,25579 1633,23590 3203,23590 3203,23959 2111,23959 2111,24391 3076,24391 3076,24750 2111,24750 2111,25210 3244,25210 Z"/>
       </g>
      </g>
      <g class="com.sun.star.drawing.PolyPolygonShape">
       <g id="id69">
        <rect class="BoundingBox" stroke="none" fill="none" x="3454" y="23555" width="1736" height="2065"/>
       </g>
      </g>
      <g class="com.sun.star.drawing.PolyPolygonShape">
       <g id="id70">
        <rect class="BoundingBox" stroke="none" fill="none" x="3455" y="23556" width="1733" height="2062"/>
       </g>
      </g>
      <g class="com.sun.star.drawing.ClosedBezierShape">
       <g id="id71">
        <rect class="BoundingBox" stroke="none" fill="none" x="3458" y="23556" width="1729" height="2061"/>
        <path fill="rgb(255,255,255)" stroke="none" d="M 3458,25386 L 3619,25037 C 3797,25160 4057,25246 4306,25246 4593,25246 4707,25154 4707,25033 4707,24660 3499,24917 3499,24176 3499,23839 3786,23557 4376,23557 4637,23557 4903,23616 5097,23733 L 4947,24082 C 4754,23976 4557,23926 4373,23926 4087,23926 3977,24029 3977,24153 3977,24520 5186,24266 5186,24999 5186,25332 4897,25615 4302,25615 3974,25615 3642,25522 3458,25386 Z"/>
       </g>
      </g>
      <g class="com.sun.star.drawing.PolyPolygonShape">
       <g id="id72">
        <rect class="BoundingBox" stroke="none" fill="none" x="5245" y="23589" width="1815" height="1996"/>
       </g>
      </g>
      <g class="com.sun.star.drawing.PolyPolygonShape">
       <g id="id73">
        <rect class="BoundingBox" stroke="none" fill="none" x="5245" y="23588" width="1813" height="1994"/>
       </g>
      </g>
      <g class="com.sun.star.drawing.PolyPolygonShape">
       <g id="id74">
        <rect class="BoundingBox" stroke="none" fill="none" x="5245" y="23589" width="1812" height="1992"/>
        <path fill="rgb(255,255,255)" stroke="none" d="M 5909,23963 L 5245,23963 5245,23590 7055,23590 7055,23963 6392,23963 6392,25579 5909,25579 5909,23963 Z"/>
       </g>
      </g>
      <g class="com.sun.star.drawing.PolyPolygonShape">
       <g id="id75">
        <rect class="BoundingBox" stroke="none" fill="none" x="6932" y="23589" width="2333" height="1996"/>
       </g>
      </g>
      <g class="com.sun.star.drawing.PolyPolygonShape">
       <g id="id76">
        <rect class="BoundingBox" stroke="none" fill="none" x="6932" y="23588" width="2332" height="1994"/>
       </g>
      </g>
      <g class="com.sun.star.drawing.PolyPolygonShape">
       <g id="id77">
        <rect class="BoundingBox" stroke="none" fill="none" x="6932" y="23589" width="2331" height="1992"/>
        <path fill="rgb(255,255,255)" stroke="none" d="M 8423,24804 L 8091,24041 7764,24804 8423,24804 Z M 8575,25153 L 7610,25153 7425,25579 6932,25579 7857,23590 8334,23590 9262,25579 8758,25579 8575,25153 Z"/>
       </g>
      </g>
      <g class="com.sun.star.drawing.PolyPolygonShape">
       <g id="id78">
        <rect class="BoundingBox" stroke="none" fill="none" x="9471" y="23589" width="2095" height="1996"/>
       </g>
      </g>
      <g class="com.sun.star.drawing.PolyPolygonShape">
       <g id="id79">
        <rect class="BoundingBox" stroke="none" fill="none" x="9471" y="23588" width="2092" height="1994"/>
       </g>
      </g>
      <g class="com.sun.star.drawing.ClosedBezierShape">
       <g id="id80">
        <rect class="BoundingBox" stroke="none" fill="none" x="9473" y="23589" width="2089" height="1992"/>
        <path fill="rgb(255,255,255)" stroke="none" d="M 10392,25203 C 10807,25203 11078,24967 11078,24585 11078,24205 10807,23968 10392,23968 L 9953,23968 9953,25203 10392,25203 Z M 9473,23590 L 10417,23590 C 11098,23590 11561,23982 11561,24585 11561,25187 11098,25579 10417,25579 L 9473,25579 9473,23590 Z"/>
       </g>
      </g>
      <g class="com.sun.star.drawing.PolyPolygonShape">
       <g id="id81">
        <rect class="BoundingBox" stroke="none" fill="none" x="11784" y="23555" width="2282" height="2065"/>
       </g>
      </g>
      <g class="com.sun.star.drawing.PolyPolygonShape">
       <g id="id82">
        <rect class="BoundingBox" stroke="none" fill="none" x="11786" y="23556" width="2276" height="2062"/>
       </g>
      </g>
      <g class="com.sun.star.drawing.ClosedBezierShape">
       <g id="id83">
        <rect class="BoundingBox" stroke="none" fill="none" x="11786" y="23556" width="2273" height="2061"/>
        <path fill="rgb(255,255,255)" stroke="none" d="M 13573,24587 C 13573,24208 13294,23949 12924,23949 12552,23949 12273,24208 12273,24587 12273,24964 12552,25223 12924,25223 13294,25223 13573,24964 13573,24587 Z M 11787,24587 C 11787,23995 12267,23557 12924,23557 13578,23557 14058,23993 14058,24587 14058,25179 13578,25615 12924,25615 12267,25615 11787,25177 11787,24587 Z"/>
       </g>
      </g>
      <g class="com.sun.star.drawing.PolyPolygonShape">
       <g id="id84">
        <rect class="BoundingBox" stroke="none" fill="none" x="15251" y="23589" width="2097" height="1996"/>
       </g>
      </g>
      <g class="com.sun.star.drawing.PolyPolygonShape">
       <g id="id85">
        <rect class="BoundingBox" stroke="none" fill="none" x="15254" y="23588" width="2092" height="1994"/>
       </g>
      </g>
      <g class="com.sun.star.drawing.ClosedBezierShape">
       <g id="id86">
        <rect class="BoundingBox" stroke="none" fill="none" x="15254" y="23589" width="2090" height="1992"/>
        <path fill="rgb(255,255,255)" stroke="none" d="M 16173,25203 C 16588,25203 16858,24967 16858,24585 16858,24205 16588,23968 16173,23968 L 15735,23968 15735,25203 16173,25203 Z M 15255,23590 L 16198,23590 C 16878,23590 17343,23982 17343,24585 17343,25187 16878,25579 16198,25579 L 15255,25579 15255,23590 Z"/>
       </g>
      </g>
      <g class="com.sun.star.drawing.PolyPolygonShape">
       <g id="id87">
        <rect class="BoundingBox" stroke="none" fill="none" x="17699" y="23589" width="1616" height="1996"/>
       </g>
      </g>
      <g class="com.sun.star.drawing.PolyPolygonShape">
       <g id="id88">
        <rect class="BoundingBox" stroke="none" fill="none" x="17699" y="23588" width="1614" height="1994"/>
       </g>
      </g>
      <g class="com.sun.star.drawing.PolyPolygonShape">
       <g id="id89">
        <rect class="BoundingBox" stroke="none" fill="none" x="17700" y="23589" width="1611" height="1992"/>
        <path fill="rgb(255,255,255)" stroke="none" d="M 19310,25210 L 19310,25579 17700,25579 17700,23590 19270,23590 19270,23959 18178,23959 18178,24391 19143,24391 19143,24750 18178,24750 18178,25210 19310,25210 Z"/>
       </g>
      </g>
      <g class="com.sun.star.drawing.PolyPolygonShape">
       <g id="id90">
        <rect class="BoundingBox" stroke="none" fill="none" x="20360" y="23555" width="1733" height="2065"/>
       </g>
      </g>
      <g class="com.sun.star.drawing.PolyPolygonShape">
       <g id="id91">
        <rect class="BoundingBox" stroke="none" fill="none" x="20359" y="23556" width="1733" height="2062"/>
       </g>
      </g>
      <g class="com.sun.star.drawing.ClosedBezierShape">
       <g id="id92">
        <rect class="BoundingBox" stroke="none" fill="none" x="20360" y="23556" width="1729" height="2061"/>
        <path fill="rgb(255,255,255)" stroke="none" d="M 20361,25386 L 20522,25037 C 20700,25160 20959,25246 21209,25246 21495,25246 21610,25154 21610,25033 21610,24660 20402,24917 20402,24176 20402,23839 20687,23557 21279,23557 21540,23557 21807,23616 22001,23733 L 21851,24082 C 21658,23976 21460,23926 21275,23926 20990,23926 20879,24029 20879,24153 20879,24520 22088,24266 22088,24999 22088,25332 21801,25615 21205,25615 20878,25615 20545,25522 20361,25386 Z"/>
       </g>
      </g>
      <g class="com.sun.star.drawing.PolyPolygonShape">
       <g id="id93">
        <rect class="BoundingBox" stroke="none" fill="none" x="22138" y="23589" width="2333" height="1996"/>
       </g>
      </g>
      <g class="com.sun.star.drawing.PolyPolygonShape">
       <g id="id94">
        <rect class="BoundingBox" stroke="none" fill="none" x="22138" y="23588" width="2332" height="1994"/>
       </g>
      </g>
      <g class="com.sun.star.drawing.PolyPolygonShape">
       <g id="id95">
        <rect class="BoundingBox" stroke="none" fill="none" x="22137" y="23589" width="2330" height="1992"/>
        <path fill="rgb(255,255,255)" stroke="none" d="M 23629,24804 L 23297,24041 22968,24804 23629,24804 Z M 23780,25153 L 22816,25153 22631,25579 22138,25579 23063,23590 23540,23590 24466,25579 23964,25579 23780,25153 Z"/>
       </g>
      </g>
      <g class="com.sun.star.drawing.PolyPolygonShape">
       <g id="id96">
        <rect class="BoundingBox" stroke="none" fill="none" x="24679" y="23589" width="1913" height="1996"/>
       </g>
      </g>
      <g class="com.sun.star.drawing.PolyPolygonShape">
       <g id="id97">
        <rect class="BoundingBox" stroke="none" fill="none" x="24679" y="23588" width="1912" height="1994"/>
       </g>
      </g>
      <g class="com.sun.star.drawing.PolyPolygonShape">
       <g id="id98">
        <rect class="BoundingBox" stroke="none" fill="none" x="24680" y="23589" width="1907" height="1992"/>
        <path fill="rgb(255,255,255)" stroke="none" d="M 26586,23590 L 26586,25579 26191,25579 25154,24371 25154,25579 24680,25579 24680,23590 25076,23590 26111,24798 26111,23590 26586,23590 Z"/>
       </g>
      </g>
      <g class="com.sun.star.drawing.PolyPolygonShape">
       <g id="id99">
        <rect class="BoundingBox" stroke="none" fill="none" x="26834" y="23589" width="1818" height="1996"/>
       </g>
      </g>
      <g class="com.sun.star.drawing.PolyPolygonShape">
       <g id="id100">
        <rect class="BoundingBox" stroke="none" fill="none" x="26835" y="23588" width="1816" height="1994"/>
       </g>
      </g>
      <g class="com.sun.star.drawing.PolyPolygonShape">
       <g id="id101">
        <rect class="BoundingBox" stroke="none" fill="none" x="26836" y="23589" width="1812" height="1992"/>
        <path fill="rgb(255,255,255)" stroke="none" d="M 27500,23963 L 26836,23963 26836,23590 28646,23590 28646,23963 27983,23963 27983,25579 27500,25579 27500,23963 Z"/>
       </g>
      </g>
      <g class="com.sun.star.drawing.PolyPolygonShape">
       <g id="id102">
        <rect class="BoundingBox" stroke="none" fill="none" x="28523" y="23589" width="2334" height="1996"/>
       </g>
      </g>
      <g class="com.sun.star.drawing.PolyPolygonShape">
       <g id="id103">
        <rect class="BoundingBox" stroke="none" fill="none" x="28524" y="23588" width="2332" height="1994"/>
       </g>
      </g>
      <g class="com.sun.star.drawing.PolyPolygonShape">
       <g id="id104">
        <rect class="BoundingBox" stroke="none" fill="none" x="28523" y="23589" width="2330" height="1992"/>
        <path fill="rgb(255,255,255)" stroke="none" d="M 30015,24804 L 29683,24041 29354,24804 30015,24804 Z M 30166,25153 L 29202,25153 29017,25579 28524,25579 29449,23590 29926,23590 30852,25579 30350,25579 30166,25153 Z"/>
       </g>
      </g>
      <g class="com.sun.star.drawing.PolyPolygonShape">
       <g id="id105">
        <rect class="BoundingBox" stroke="none" fill="none" x="31771" y="23555" width="1988" height="2065"/>
       </g>
      </g>
      <g class="com.sun.star.drawing.PolyPolygonShape">
       <g id="id106">
        <rect class="BoundingBox" stroke="none" fill="none" x="31771" y="23556" width="1987" height="2062"/>
       </g>
      </g>
      <g class="com.sun.star.drawing.ClosedBezierShape">
       <g id="id107">
        <rect class="BoundingBox" stroke="none" fill="none" x="31772" y="23556" width="1983" height="2061"/>
        <path fill="rgb(255,255,255)" stroke="none" d="M 31772,24587 C 31772,23986 32252,23557 32901,23557 33260,23557 33558,23681 33754,23910 L 33445,24182 C 33308,24029 33131,23949 32925,23949 32535,23949 32258,24211 32258,24587 32258,24960 32535,25223 32925,25223 33131,25223 33308,25143 33445,24988 L 33754,25260 C 33558,25490 33260,25615 32896,25615 32252,25615 31772,25186 31772,24587 Z"/>
       </g>
      </g>
      <g class="com.sun.star.drawing.PolyPolygonShape">
       <g id="id108">
        <rect class="BoundingBox" stroke="none" fill="none" x="33757" y="23589" width="2334" height="1996"/>
       </g>
      </g>
      <g class="com.sun.star.drawing.PolyPolygonShape">
       <g id="id109">
        <rect class="BoundingBox" stroke="none" fill="none" x="33758" y="23588" width="2332" height="1994"/>
       </g>
      </g>
      <g class="com.sun.star.drawing.PolyPolygonShape">
       <g id="id110">
        <rect class="BoundingBox" stroke="none" fill="none" x="33757" y="23589" width="2330" height="1992"/>
        <path fill="rgb(255,255,255)" stroke="none" d="M 35247,24804 L 34917,24041 34588,24804 35247,24804 Z M 35400,25153 L 34436,25153 34251,25579 33758,25579 34682,23590 35160,23590 36086,25579 35584,25579 35400,25153 Z"/>
       </g>
      </g>
      <g class="com.sun.star.drawing.PolyPolygonShape">
       <g id="id111">
        <rect class="BoundingBox" stroke="none" fill="none" x="35958" y="23589" width="1817" height="1996"/>
       </g>
      </g>
      <g class="com.sun.star.drawing.PolyPolygonShape">
       <g id="id112">
        <rect class="BoundingBox" stroke="none" fill="none" x="35960" y="23588" width="1813" height="1994"/>
       </g>
      </g>
      <g class="com.sun.star.drawing.PolyPolygonShape">
       <g id="id113">
        <rect class="BoundingBox" stroke="none" fill="none" x="35960" y="23589" width="1813" height="1992"/>
        <path fill="rgb(255,255,255)" stroke="none" d="M 36624,23963 L 35960,23963 35960,23590 37771,23590 37771,23963 37108,23963 37108,25579 36624,25579 36624,23963 Z"/>
       </g>
      </g>
      <g class="com.sun.star.drawing.PolyPolygonShape">
       <g id="id114">
        <rect class="BoundingBox" stroke="none" fill="none" x="37648" y="23589" width="2333" height="1996"/>
       </g>
      </g>
      <g class="com.sun.star.drawing.PolyPolygonShape">
       <g id="id115">
        <rect class="BoundingBox" stroke="none" fill="none" x="37648" y="23588" width="2332" height="1994"/>
       </g>
      </g>
      <g class="com.sun.star.drawing.PolyPolygonShape">
       <g id="id116">
        <rect class="BoundingBox" stroke="none" fill="none" x="37649" y="23589" width="2329" height="1992"/>
        <path fill="rgb(255,255,255)" stroke="none" d="M 39138,24804 L 38808,24041 38479,24804 39138,24804 Z M 39291,25153 L 38326,25153 38142,25579 37649,25579 38573,23590 39051,23590 39977,25579 39474,25579 39291,25153 Z"/>
       </g>
      </g>
      <g class="com.sun.star.drawing.PolyPolygonShape">
       <g id="id117">
        <rect class="BoundingBox" stroke="none" fill="none" x="40186" y="23589" width="1849" height="1996"/>
       </g>
      </g>
      <g class="com.sun.star.drawing.PolyPolygonShape">
       <g id="id118">
        <rect class="BoundingBox" stroke="none" fill="none" x="40186" y="23588" width="1843" height="1994"/>
       </g>
      </g>
      <g class="com.sun.star.drawing.ClosedBezierShape">
       <g id="id119">
        <rect class="BoundingBox" stroke="none" fill="none" x="40186" y="23589" width="1842" height="1992"/>
        <path fill="rgb(255,255,255)" stroke="none" d="M 41058,23963 L 40668,23963 40668,24661 41058,24661 C 41354,24661 41503,24528 41503,24312 41503,24093 41354,23963 41058,23963 Z M 41509,25579 L 41112,25027 41085,25027 40668,25027 40668,25579 40186,25579 40186,23590 41085,23590 C 41642,23590 41988,23866 41988,24312 41988,24612 41829,24831 41562,24940 L 42026,25579 41509,25579 Z"/>
       </g>
      </g>
      <g class="com.sun.star.drawing.PolyPolygonShape">
       <g id="id120">
        <rect class="BoundingBox" stroke="none" fill="none" x="42361" y="23589" width="494" height="1996"/>
       </g>
      </g>
      <g class="com.sun.star.drawing.PolyPolygonShape">
       <g id="id121">
        <rect class="BoundingBox" stroke="none" fill="none" x="42361" y="23588" width="489" height="1994"/>
       </g>
      </g>
      <g class="com.sun.star.drawing.PolyPolygonShape">
       <g id="id122">
        <rect class="BoundingBox" stroke="none" fill="none" x="42363" y="23589" width="486" height="1992"/>
        <path fill="rgb(255,255,255)" stroke="none" d="M 42363,23590 L 42848,23590 42848,25579 42363,25579 42363,23590 Z"/>
       </g>
      </g>
      <g class="com.sun.star.drawing.PolyPolygonShape">
       <g id="id123">
        <rect class="BoundingBox" stroke="none" fill="none" x="43335" y="23589" width="1912" height="1996"/>
       </g>
      </g>
      <g class="com.sun.star.drawing.PolyPolygonShape">
       <g id="id124">
        <rect class="BoundingBox" stroke="none" fill="none" x="43335" y="23588" width="1912" height="1994"/>
       </g>
      </g>
      <g class="com.sun.star.drawing.PolyPolygonShape">
       <g id="id125">
        <rect class="BoundingBox" stroke="none" fill="none" x="43335" y="23589" width="1908" height="1992"/>
        <path fill="rgb(255,255,255)" stroke="none" d="M 45242,23590 L 45242,25579 44847,25579 43810,24371 43810,25579 43335,25579 43335,23590 43731,23590 44767,24798 44767,23590 45242,23590 Z"/>
       </g>
      </g>
      <g class="com.sun.star.drawing.PolyPolygonShape">
       <g id="id126">
        <rect class="BoundingBox" stroke="none" fill="none" x="45454" y="23589" width="2333" height="1996"/>
       </g>
      </g>
      <g class="com.sun.star.drawing.PolyPolygonShape">
       <g id="id127">
        <rect class="BoundingBox" stroke="none" fill="none" x="45454" y="23588" width="2333" height="1994"/>
       </g>
      </g>
      <g class="com.sun.star.drawing.PolyPolygonShape">
       <g id="id128">
        <rect class="BoundingBox" stroke="none" fill="none" x="45455" y="23589" width="2329" height="1992"/>
        <path fill="rgb(255,255,255)" stroke="none" d="M 46944,24804 L 46614,24041 46285,24804 46944,24804 Z M 47097,25153 L 46132,25153 45948,25579 45455,25579 46379,23590 46857,23590 47783,25579 47281,25579 47097,25153 Z"/>
       </g>
      </g>
      <g class="com.sun.star.drawing.PolyPolygonShape">
       <g id="id129">
        <rect class="BoundingBox" stroke="none" fill="none" x="15706" y="1133" width="17086" height="16737"/>
       </g>
      </g>
      <g class="com.sun.star.drawing.PolyPolygonShape">
       <g id="id130">
        <rect class="BoundingBox" stroke="none" fill="none" x="15706" y="1133" width="17084" height="16734"/>
       </g>
      </g>
      <g class="com.sun.star.drawing.ClosedBezierShape">
       <g id="id131">
        <rect class="BoundingBox" stroke="none" fill="none" x="15706" y="1133" width="17083" height="16733"/>
        <path fill="rgb(255,255,255)" stroke="none" d="M 25442,5499 C 26920,5499 28137,6093 29184,7257 L 32788,4218 C 31094,2231 28445,1134 25154,1134 19642,1134 15706,4585 15706,9497 15706,14413 19642,17865 25034,17865 27492,17865 30284,17155 32312,15830 L 32312,9064 27420,9064 27420,13111 C 26729,13386 26062,13499 25368,13499 22958,13499 21385,11900 21385,9497 21385,7031 22958,5499 25442,5499 Z"/>
       </g>
      </g>
      <g class="com.sun.star.drawing.PolyPolygonShape">
       <g id="id132">
        <rect class="BoundingBox" stroke="none" fill="none" x="1588" y="1133" width="15278" height="16737"/>
       </g>
      </g>
      <g class="com.sun.star.drawing.PolyPolygonShape">
       <g id="id133">
        <rect class="BoundingBox" stroke="none" fill="none" x="1588" y="1133" width="15276" height="16734"/>
       </g>
      </g>
      <g class="com.sun.star.drawing.ClosedBezierShape">
       <g id="id134">
        <rect class="BoundingBox" stroke="none" fill="none" x="1588" y="1133" width="15273" height="16733"/>
        <path fill="rgb(255,255,255)" stroke="none" d="M 14830,11626 C 13850,12814 12681,13499 11180,13499 8840,13499 7267,11947 7267,9497 7267,7053 8840,5499 11180,5499 12681,5499 13850,6184 14830,7373 L 14859,7348 C 15175,5669 15864,4163 16860,2883 15304,1748 13284,1134 10894,1134 5525,1134 1588,4585 1588,9497 1588,14413 5525,17865 10894,17865 13283,17865 15296,17252 16854,16120 15864,14839 15175,13330 14856,11651 L 14830,11626 Z"/>
       </g>
      </g>
      <g class="com.sun.star.drawing.PolyPolygonShape">
       <g id="id135">
        <rect class="BoundingBox" stroke="none" fill="none" x="46123" y="13428" width="1614" height="4075"/>
       </g>
      </g>
      <g class="com.sun.star.drawing.PolyPolygonShape">
       <g id="id136">
        <rect class="BoundingBox" stroke="none" fill="none" x="46123" y="13428" width="1612" height="4074"/>
       </g>
      </g>
      <g class="com.sun.star.drawing.ClosedBezierShape">
       <g id="id137">
        <rect class="BoundingBox" stroke="none" fill="none" x="46124" y="13428" width="1608" height="4073"/>
        <path fill="rgb(229,49,45)" stroke="none" d="M 47731,13428 L 46454,13428 C 46458,14712 46360,16075 46124,17500 L 47731,17500 47731,13428 Z"/>
       </g>
      </g>
      <g class="com.sun.star.drawing.PolyPolygonShape">
       <g id="id138">
        <rect class="BoundingBox" stroke="none" fill="none" x="45674" y="7439" width="2063" height="3893"/>
       </g>
      </g>
      <g class="com.sun.star.drawing.PolyPolygonShape">
       <g id="id139">
        <rect class="BoundingBox" stroke="none" fill="none" x="45674" y="7439" width="2061" height="3892"/>
       </g>
      </g>
      <g class="com.sun.star.drawing.ClosedBezierShape">
       <g id="id140">
        <rect class="BoundingBox" stroke="none" fill="none" x="45675" y="7439" width="2057" height="3890"/>
        <path fill="rgb(164,196,46)" stroke="none" d="M 47731,9454 L 45675,7439 C 45979,8609 46225,9913 46353,11328 L 47731,9454 Z"/>
       </g>
      </g>
      <g class="com.sun.star.drawing.PolyPolygonShape">
       <g id="id141">
        <rect class="BoundingBox" stroke="none" fill="none" x="43220" y="1499" width="4517" height="4076"/>
       </g>
      </g>
      <g class="com.sun.star.drawing.PolyPolygonShape">
       <g id="id142">
        <rect class="BoundingBox" stroke="none" fill="none" x="43220" y="1499" width="4514" height="4075"/>
       </g>
      </g>
      <g class="com.sun.star.drawing.ClosedBezierShape">
       <g id="id143">
        <rect class="BoundingBox" stroke="none" fill="none" x="43221" y="1499" width="4511" height="4074"/>
        <path fill="rgb(229,49,45)" stroke="none" d="M 47731,5571 L 47731,1500 43221,1500 C 43694,2281 44446,3678 45106,5571 L 47731,5571 Z"/>
       </g>
      </g>
      <g class="com.sun.star.drawing.PolyPolygonShape">
       <g id="id144">
        <rect class="BoundingBox" stroke="none" fill="none" x="33270" y="1499" width="12291" height="16004"/>
       </g>
      </g>
      <g class="com.sun.star.drawing.PolyPolygonShape">
       <g id="id145">
        <rect class="BoundingBox" stroke="none" fill="none" x="33270" y="1499" width="12286" height="16001"/>
       </g>
      </g>
      <g class="com.sun.star.drawing.ClosedBezierShape">
       <g id="id146">
        <rect class="BoundingBox" stroke="none" fill="none" x="33271" y="1499" width="12283" height="16000"/>
        <path fill="rgb(255,255,255)" stroke="none" d="M 38805,13432 L 38805,11328 44829,11328 C 44582,10078 44254,8745 43818,7442 L 38805,7442 38805,5569 43096,5569 C 42409,4013 41533,2587 40413,1500 L 33271,1500 33271,17498 45553,17498 C 45553,17498 45517,15794 45183,13432 L 38805,13432 Z"/>
       </g>
      </g>
     </g>
    </g>
   </g>
  </g>
 </g>
</svg>