<?xml version="1.0"?>
<svg xmlns="http://www.w3.org/2000/svg" xmlns:xlink="http://www.w3.org/1999/xlink" version="1.1" id="Capa_1" x="0px" y="0px" viewBox="0 0 392.105 392.105" style="enable-background:new 0 0 392.105 392.105;" xml:space="preserve" width="512px" height="512px"><g><g>
	<g>
		<path d="M161.028,127.087h-40c-5.523,0-10,4.477-10,10s4.477,10,10,10h40c5.523,0,10-4.477,10-10S166.551,127.087,161.028,127.087    z" data-original="#000000" class="active-path" data-old_color="#000000" fill="#FFFFFF"/>
	</g>
</g><g>
	<g>
		<path d="M161.028,209.087h-40c-5.523,0-10,4.477-10,10c0,5.523,4.477,10,10,10h40c5.523,0,10-4.477,10-10    C171.028,213.564,166.551,209.087,161.028,209.087z" data-original="#000000" class="active-path" data-old_color="#000000" fill="#FFFFFF"/>
	</g>
</g><g>
	<g>
		<path d="M161.028,293.087h-40c-5.523,0-10,4.477-10,10c0,5.523,4.477,10,10,10h40c5.523,0,10-4.477,10-10    C171.028,297.564,166.551,293.087,161.028,293.087z" data-original="#000000" class="active-path" data-old_color="#000000" fill="#FFFFFF"/>
	</g>
</g><g>
	<g>
		<path d="M359.109,220.03c-20.15-25.419-50.818-40.228-83.255-40.203h0c-1.588,0-2.826,0.041-4.826,0.111V53.657    c0-11.45-7.187-27.732-41.842-40.273C205.339,4.753,173.881,0,140.528,0C107.175,0,75.74,4.753,51.891,13.387    c-34.654,12.538-41.863,28.82-41.863,40.27v248.73c0,11.455,7.23,27.741,41.882,40.279c23.841,8.627,55.322,13.378,88.684,13.378    c17.473,0.037,34.921-1.35,52.169-4.146c36.414,45.935,103.172,53.653,149.107,17.239S395.523,265.965,359.109,220.03z     M140.572,20c72.635,0,110.63,21.911,110.63,33.657c0,11.746-38,33.657-110.63,33.657S29.941,65.402,29.941,53.657    S67.937,20,140.572,20z M140.528,170.032c-72.635,0-110.5-21.911-110.5-33.657V83.467C36.946,87.694,44.28,91.2,51.914,93.93    c23.847,8.631,55.327,13.384,88.68,13.384c33.353,0,64.756-4.753,88.6-13.384c7.618-2.729,14.934-6.235,21.834-10.463v52.908    C251.028,148.121,213.163,170.032,140.528,170.032z M251.028,166.193v16.551c-34.984,8.523-63.312,34.11-75.339,68.049    c-11.659,1.317-23.384,1.971-35.117,1.957c-72.635,0-110.544-21.912-110.544-33.657v-52.9c6.917,4.226,14.249,7.732,21.882,10.461    c23.841,8.627,55.322,13.378,88.684,13.378s64.766-4.751,88.607-13.378C236.816,173.926,244.131,170.42,251.028,166.193z     M140.572,336.042c-31.1,0-60.143-4.327-81.857-12.184c-21.206-7.671-28.687-16.363-28.687-21.471v-53.476    c6.917,4.226,14.249,7.732,21.882,10.461c23.841,8.627,55.322,13.378,88.684,13.378c10.268,0,20.363-0.459,30.193-1.347    c-2.959,21.231,0.593,42.86,10.187,62.03C167.578,335.184,154.082,336.055,140.572,336.042z M275.941,372.174    c-47.593,0-86.174-38.581-86.174-86.174s38.581-86.174,86.174-86.174c47.593,0,86.174,38.581,86.174,86.174    C362.061,333.57,323.511,372.121,275.941,372.174z" data-original="#000000" class="active-path" data-old_color="#000000" fill="#FFFFFF"/>
	</g>
</g><g>
	<g>
		<path d="M328.631,324.434c-0.089-0.092-0.179-0.182-0.271-0.27l-16.804-16.721c5.36-8.064,8.215-17.534,8.207-27.217    c0.078-27.405-22.074-49.684-49.479-49.763c-27.405-0.078-49.684,22.074-49.763,49.479c-0.079,27.405,22.074,49.684,49.479,49.763    c9.73,0.028,19.254-2.805,27.386-8.148l16.874,16.786c3.841,3.968,10.172,4.072,14.14,0.231    C332.369,334.733,332.472,328.402,328.631,324.434z M270.291,309.705c-0.04,0-0.081,0-0.121,0    c-16.307,0.016-29.549-13.172-29.6-29.479c-0.067-16.348,13.131-29.654,29.479-29.721c16.347-0.067,29.654,13.131,29.721,29.479    C299.836,296.331,286.638,309.638,270.291,309.705z" data-original="#000000" class="active-path" data-old_color="#000000" fill="#FFFFFF"/>
	</g>
</g></g> </svg>
