<?xml version="1.0"?>
<svg xmlns="http://www.w3.org/2000/svg" xmlns:xlink="http://www.w3.org/1999/xlink" version="1.1" id="Capa_1" x="0px" y="0px" viewBox="0 0 512.005 512.005" style="enable-background:new 0 0 512.005 512.005;" xml:space="preserve" width="512px" height="512px" class=""><g><g>
	<g>
		<g>
			<path d="M213.333,192.003c119.616,0,213.333-42.176,213.333-96s-93.717-96-213.333-96S0,42.179,0,96.003     S93.717,192.003,213.333,192.003z" data-original="#000000" class="active-path" data-old_color="#000000" fill="#FFFFFF"/>
			<path d="M213.333,298.669c127.595,0,213.333-38.613,213.333-74.667v-52.821c0-4.032-2.261-7.723-5.888-9.536     c-3.563-1.771-7.893-1.429-11.157,1.003c-42.453,31.723-115.84,50.688-196.288,50.688S59.499,194.371,17.067,162.648     c-3.243-2.432-7.573-2.773-11.157-1.003C2.261,163.459,0,167.149,0,171.181v52.821C0,260.056,85.739,298.669,213.333,298.669z" data-original="#000000" class="active-path" data-old_color="#000000" fill="#FFFFFF"/>
			<path d="M213.333,405.336c18.347,0,36.267-0.875,54.763-2.645c5.781-0.555,9.941-6.891,9.515-12.693     c-0.128-1.984-0.277-3.947-0.277-5.995c0-18.197,4.757-36.245,13.76-52.203c1.984-3.477,1.813-7.787-0.427-11.136     c-2.219-3.328-6.144-5.248-10.133-4.672c-106.901,12.544-210.112-4.651-264.235-38.4c-3.264-2.027-7.424-2.155-10.816-0.277     C2.112,279.213,0,282.776,0,286.659v44.011C0,366.723,85.739,405.336,213.333,405.336z" data-original="#000000" class="active-path" data-old_color="#000000" fill="#FFFFFF"/>
			<path d="M508.885,493.784l-57.749-57.749c11.243-14.421,18.197-32.341,18.197-52.032c0-47.061-38.272-85.333-85.333-85.333     s-85.333,38.272-85.333,85.333c0,47.061,38.272,85.333,85.333,85.333c19.691,0,37.611-6.955,52.053-18.197l57.749,57.749     c2.069,2.069,4.8,3.115,7.531,3.115c2.731,0,5.461-1.045,7.552-3.115C513.045,504.707,513.045,497.965,508.885,493.784z      M384,448.003c-35.285,0-64-28.715-64-64c0-35.285,28.715-64,64-64c35.285,0,64,28.715,64,64     C448,419.288,419.285,448.003,384,448.003z" data-original="#000000" class="active-path" data-old_color="#000000" fill="#FFFFFF"/>
			<path d="M329.557,475.565c-18.389-11.029-32.939-27.051-42.027-46.379c-1.941-4.117-6.123-6.571-10.816-6.059     c-105.387,11.563-206.912-5.525-260.395-38.869c-3.264-2.027-7.424-2.155-10.816-0.277C2.112,385.88,0,389.443,0,393.325v26.752     c0,50.112,91.712,87.872,213.333,87.872c40.299,0,79.467-4.459,113.323-12.885c4.181-1.045,7.339-4.523,7.957-8.789     C335.253,482.008,333.269,477.784,329.557,475.565z" data-original="#000000" class="active-path" data-old_color="#000000" fill="#FFFFFF"/>
		</g>
	</g>
</g></g> </svg>
