<svg id="Capa_1" enable-background="new 0 0 512 512" height="512" viewBox="0 0 512 512" width="512" xmlns="http://www.w3.org/2000/svg"><g><g><circle cx="256" cy="215.919" fill="#ff8086" r="64.129"/><path d="m480.452 203.021c-44.522 101.944-146.179 173.221-264.533 173.221h-184.371v32.065h448.903v-205.286z" fill="#ffe4e5"/><path d="m270.028 266.02c-35.417 0-64.129-28.712-64.129-64.129 0-14.127 4.623-27.143 12.361-37.74-15.971 11.664-26.39 30.477-26.39 51.768 0 35.417 28.712 64.129 64.129 64.129 21.291 0 40.104-10.419 51.768-26.39-10.596 7.74-23.612 12.362-37.739 12.362z" fill="#e5646e"/></g><g><path d="m256 199.946c4.142 0 7.5-3.358 7.5-7.5v-8.016c0-4.142-3.358-7.5-7.5-7.5s-7.5 3.358-7.5 7.5v8.016c0 4.142 3.358 7.5 7.5 7.5z"/><path d="m248.5 248.56c0 4.142 3.358 7.5 7.5 7.5s7.5-3.358 7.5-7.5v-8.016c0-4.142-3.358-7.5-7.5-7.5s-7.5 3.358-7.5 7.5z"/><path d="m159.807 223.995h24.963c.785 7.476 2.739 14.779 5.783 21.625l-21.609 12.476c-3.587 2.071-4.816 6.658-2.745 10.245 1.389 2.406 3.91 3.751 6.502 3.751 1.272 0 2.562-.324 3.743-1.006l27.769-16.032c3.587-2.071 4.816-6.658 2.745-10.245-.027-.047-.059-.088-.087-.134-4.906-8.532-7.5-18.272-7.5-28.18 0-31.226 25.404-56.629 56.629-56.629s56.629 25.404 56.629 56.629-25.404 56.629-56.629 56.629c-9.906 0-19.645-2.593-28.175-7.497-.048-.029-.091-.062-.139-.09-3.587-2.073-8.174-.842-10.245 2.745l-16.032 27.769c-2.071 3.587-.842 8.174 2.745 10.245 1.181.682 2.471 1.006 3.743 1.006 2.592 0 5.113-1.346 6.502-3.751l12.476-21.609c6.846 3.044 14.15 4.998 21.625 5.783v24.963c0 4.142 3.358 7.5 7.5 7.5s7.5-3.358 7.5-7.5v-24.958c7.623-.797 14.885-2.808 21.611-5.813l12.49 21.634c1.389 2.406 3.91 3.751 6.502 3.751 1.272 0 2.562-.324 3.743-1.006 3.587-2.071 4.816-6.658 2.745-10.245l-12.5-21.651c6.058-4.416 11.397-9.755 15.813-15.813l21.651 12.5c1.181.682 2.471 1.006 3.743 1.006 2.592 0 5.113-1.346 6.502-3.751 2.071-3.587.842-8.174-2.745-10.245l-21.634-12.491c3.005-6.726 5.016-13.988 5.813-21.611h24.959c4.142 0 7.5-3.358 7.5-7.5s-3.358-7.5-7.5-7.5h-24.959c-.797-7.623-2.808-14.885-5.813-21.612l21.634-12.491c3.587-2.071 4.816-6.658 2.745-10.245s-6.658-4.816-10.245-2.745l-21.651 12.5c-4.416-6.058-9.755-11.397-15.813-15.813l12.5-21.651c2.071-3.587.842-8.174-2.745-10.245-3.587-2.072-8.174-.843-10.245 2.745l-12.49 21.634c-6.726-3.005-13.989-5.016-21.611-5.813v-24.959c0-4.142-3.358-7.5-7.5-7.5s-7.5 3.358-7.5 7.5v24.959c-7.623.797-14.885 2.808-21.611 5.813l-12.49-21.634c-2.071-3.588-6.658-4.816-10.245-2.745s-4.816 6.658-2.745 10.245l12.5 21.651c-6.058 4.416-11.397 9.755-15.813 15.813l-21.651-12.5c-3.587-2.072-8.174-.842-10.245 2.745s-.842 8.174 2.745 10.245l21.634 12.491c-3.005 6.726-5.016 13.989-5.813 21.612h-24.959c-4.142 0-7.5 3.358-7.5 7.5s3.358 7.5 7.5 7.5z"/><path d="m288.064 223.995c4.142 0 7.5-3.358 7.5-7.5s-3.358-7.5-7.5-7.5h-8.016c-4.142 0-7.5 3.358-7.5 7.5s3.358 7.5 7.5 7.5z"/><path d="m223.936 223.995h8.016c4.142 0 7.5-3.358 7.5-7.5s-3.358-7.5-7.5-7.5h-8.016c-4.142 0-7.5 3.358-7.5 7.5s3.357 7.5 7.5 7.5z"/><path d="m504.5 400.807h-16.548v-195.909c15.755-36.539 24.048-76.248 24.048-117.236 0-4.142-3.358-7.5-7.5-7.5s-7.5 3.358-7.5 7.5c0 75.079-29.237 145.665-82.327 198.753-53.089 53.089-123.674 82.327-198.754 82.327h-176.871v-297.113c0-4.142-3.358-7.5-7.5-7.5s-7.5 3.358-7.5 7.5v8.532h-16.548c-4.142 0-7.5 3.358-7.5 7.5s3.358 7.5 7.5 7.5h16.548v49.129h-16.548c-4.142 0-7.5 3.358-7.5 7.5s3.358 7.5 7.5 7.5h16.548v49.129h-16.548c-4.142 0-7.5 3.358-7.5 7.5s3.358 7.5 7.5 7.5h16.548v49.129h-16.548c-4.142 0-7.5 3.358-7.5 7.5s3.358 7.5 7.5 7.5h16.548v49.129h-16.548c-4.142 0-7.5 3.358-7.5 7.5s3.358 7.5 7.5 7.5h16.548v49.129h-16.548c-4.142 0-7.5 3.358-7.5 7.5s3.358 7.5 7.5 7.5h88.176c4.142 0 7.5-3.358 7.5-7.5s-3.358-7.5-7.5-7.5h-56.628v-17.065h97.226v17.065h-8.534c-4.142 0-7.5 3.358-7.5 7.5s3.358 7.5 7.5 7.5h376.76c4.142 0 7.5-3.358 7.5-7.5s-3.358-7.499-7.5-7.499zm-79.22-103.785c18.81-18.81 34.762-39.712 47.671-62.171v165.955h-97.226v-63.795c17.7-11.393 34.316-24.75 49.555-39.989zm-64.554 103.785h-97.226v-20.867c34.331-5.514 67.151-16.971 97.226-33.886zm-209.452-17.065h64.645c10.965 0 21.834-.614 32.581-1.783v18.847h-97.226z"/><path d="m151.791 432.871h-16.032c-4.142 0-7.5 3.358-7.5 7.5s3.358 7.5 7.5 7.5h16.032c4.142 0 7.5-3.358 7.5-7.5s-3.358-7.5-7.5-7.5z"/><path d="m39.564 432.871h-16.032c-4.142 0-7.5 3.358-7.5 7.5s3.358 7.5 7.5 7.5h16.032c4.142 0 7.5-3.358 7.5-7.5s-3.357-7.5-7.5-7.5z"/><path d="m264.016 432.871h-16.032c-4.142 0-7.5 3.358-7.5 7.5s3.358 7.5 7.5 7.5h16.032c4.142 0 7.5-3.358 7.5-7.5s-3.358-7.5-7.5-7.5z"/><path d="m376.242 432.871h-16.032c-4.142 0-7.5 3.358-7.5 7.5s3.358 7.5 7.5 7.5h16.032c4.142 0 7.5-3.358 7.5-7.5s-3.358-7.5-7.5-7.5z"/><path d="m488.468 432.871h-16.032c-4.142 0-7.5 3.358-7.5 7.5s3.358 7.5 7.5 7.5h16.032c4.142 0 7.5-3.358 7.5-7.5s-3.358-7.5-7.5-7.5z"/></g></g></svg>