<?xml version="1.0"?>
<svg xmlns="http://www.w3.org/2000/svg" id="Layer_1" enable-background="new 0 0 512 512" height="512px" viewBox="0 0 512 512" width="512px" class=""><g><path d="m240.023 444.254c-.626 0-1.257-.029-1.894-.089-20.748-1.948-40.806-7.295-59.481-15.675l-8.396 14.411c1.128 3.156 1.748 6.555 1.748 10.1 0 16.569-13.431 30-30 30s-30-13.431-30-30c0-14.186 9.849-26.063 23.079-29.189l9.022-15.486c-9.883-7.274-19.117-15.538-27.541-24.74-4.435-4.844-8.582-9.895-12.455-15.117l-13.612 8c-2.572 13.956-14.793 24.531-29.493 24.531-16.569 0-30-13.431-30-30s13.431-30 30-30c3.029 0 5.952.453 8.708 1.288l14.109-8.292c-8.284-18.277-13.621-37.833-15.752-57.996h-15.71c-5.493 6.136-13.471 10-22.355 10-16.569 0-30-13.431-30-30s13.431-30 30-30c8.884 0 16.862 3.864 22.355 10h15.703c2.137-20.222 7.473-39.504 15.496-57.327l-14.086-8.207c-2.977.99-6.158 1.534-9.468 1.534-16.569 0-30-13.431-30-30s13.431-30 30-30c14.426 0 26.469 10.183 29.344 23.753l14.408 8.395c11.212-15.22 24.643-28.707 39.819-39.975l-8.039-13.679c-13.956-2.572-24.532-14.794-24.532-29.494 0-16.569 13.431-30 30-30s30 13.431 30 30c0 3.029-.453 5.952-1.288 8.708l8.31 14.139c18.004-8.187 37.51-13.627 57.979-15.79v-15.702c-6.136-5.493-10-13.471-10-22.355 0-16.569 13.431-30 30-30s30 13.431 30 30c0 8.884-3.864 16.862-10 22.355v15.718c20.046 2.141 39.354 7.459 57.3 15.527l8.234-14.132c-.991-2.978-1.535-6.158-1.535-9.468 0-16.569 13.431-30 30-30s30 13.431 30 30c0 14.426-10.183 26.469-23.752 29.344l-8.391 14.403c15.172 11.136 28.699 24.528 40.034 39.787l13.616-8.002c2.572-13.957 14.793-24.532 29.493-24.532 16.569 0 30 13.431 30 30s-13.431 30-30 30c-3.029 0-5.952-.453-8.708-1.288l-14.097 8.285c2.107 4.646 4.039 9.399 5.78 14.258 3.726 10.399-1.685 21.848-12.084 25.573-10.396 3.728-21.847-1.686-25.572-12.084-21.158-59.062-77.547-98.744-140.319-98.744-82.159 0-149 66.841-149 149 0 77.347 57.981 141.12 134.87 148.34 10.997 1.033 19.075 10.785 18.042 21.783-.973 10.36-9.686 18.131-19.889 18.131zm16.977-207.254c-11.046 0-20 8.954-20 20s8.954 20 20 20 20-8.954 20-20-8.954-20-20-20zm0-80c-11.046 0-20 8.954-20 20s8.954 20 20 20 20-8.954 20-20-8.954-20-20-20zm0 160c-11.046 0-20 8.954-20 20s8.954 20 20 20 20-8.954 20-20-8.954-20-20-20zm49-100c0 11.046 8.954 20 20 20s20-8.954 20-20-8.954-20-20-20-20 8.954-20 20zm-118-20c-11.046 0-20 8.954-20 20s8.954 20 20 20 20-8.954 20-20-8.954-20-20-20zm0 78c-11.046 0-20 8.954-20 20s8.954 20 20 20 20-8.954 20-20-8.954-20-20-20zm324 81c0 56.794-46.206 103-103 103-21.182 0-40.89-6.43-57.278-17.437l-64.579 64.579c-3.906 3.905-9.025 5.858-14.143 5.858s-10.237-1.953-14.143-5.858c-7.811-7.811-7.811-20.474 0-28.284l64.58-64.58c-11.007-16.388-17.437-36.096-17.437-57.278 0-56.794 46.206-103 103-103s103 46.206 103 103zm-40 0c0-34.738-28.262-63-63-63s-63 28.262-63 63 28.262 63 63 63 63-28.262 63-63z" data-original="#000000" class="active-path" data-old_color="#000000" fill="#FFFFFF"/></g> </svg>
